<svg xmlns="http://www.w3.org/2000/svg" version="1.1" xmlns:xlink="http://www.w3.org/1999/xlink" xmlns:svgjs="http://svgjs.com/svgjs" width="1440" height="560" preserveAspectRatio="none" viewBox="0 0 1440 560"><g mask="url(&quot;#SvgjsMask1570&quot;)" fill="none"><rect width="1440" height="560" x="0" y="0" fill="url(#SvgjsLinearGradient1571)"></rect><path d="M-49.05 388.89L-49.05 388.89" stroke="#132e65" stroke-width="1.5"></path><path d="M-49.05 388.89L-74.89 525.57" stroke="#132e65" stroke-width="1.5"></path><path d="M-49.05 388.89L97.06 367.14" stroke="#132e65" stroke-width="1.5"></path><path d="M-49.05 388.89L103.26 549.07" stroke="#132e65" stroke-width="1.5"></path><path d="M-49.05 388.89L239.68 400.99" stroke="#132e65" stroke-width="1.5"></path><path d="M-74.89 525.57L-74.89 525.57" stroke="#132e65" stroke-width="1.5"></path><path d="M-74.89 525.57L-50.78 695.79" stroke="#132e65" stroke-width="1.5"></path><path d="M-50.78 695.79L-50.78 695.79" stroke="#132e65" stroke-width="1.5"></path><path d="M-50.78 695.79L82.76 676.76" stroke="#132e65" stroke-width="1.5"></path><path d="M97.06 367.14L97.06 367.14" stroke="#132e65" stroke-width="1.5"></path><path d="M97.06 367.14L239.68 400.99" stroke="#132e65" stroke-width="1.5"></path><path d="M103.26 549.07L103.26 549.07" stroke="#132e65" stroke-width="1.5"></path><path d="M103.26 549.07L82.76 676.76" stroke="#132e65" stroke-width="1.5"></path><path d="M103.26 549.07L228.6 496.5" stroke="#132e65" stroke-width="1.5"></path><path d="M103.26 549.07L-74.89 525.57" stroke="#132e65" stroke-width="1.5"></path><path d="M103.26 549.07L97.06 367.14" stroke="#132e65" stroke-width="1.5"></path><path d="M103.26 549.07L239.68 400.99" stroke="#132e65" stroke-width="1.5"></path><path d="M82.76 676.76L82.76 676.76" stroke="#132e65" stroke-width="1.5"></path><path d="M239.68 400.99L239.68 400.99" stroke="#132e65" stroke-width="1.5"></path><path d="M239.68 400.99L228.6 496.5" stroke="#132e65" stroke-width="1.5"></path><path d="M239.68 400.99L353.29 384.32" stroke="#132e65" stroke-width="1.5"></path><path d="M228.6 496.5L228.6 496.5" stroke="#132e65" stroke-width="1.5"></path><path d="M228.6 496.5L389.99 540.07" stroke="#132e65" stroke-width="1.5"></path><path d="M228.6 496.5L353.29 384.32" stroke="#132e65" stroke-width="1.5"></path><path d="M353.29 384.32L353.29 384.32" stroke="#132e65" stroke-width="1.5"></path><path d="M353.29 384.32L488.56 393.07" stroke="#132e65" stroke-width="1.5"></path><path d="M389.99 540.07L389.99 540.07" stroke="#132e65" stroke-width="1.5"></path><path d="M389.99 540.07L503.28 544.77" stroke="#132e65" stroke-width="1.5"></path><path d="M389.99 540.07L395.86 655.65" stroke="#132e65" stroke-width="1.5"></path><path d="M389.99 540.07L353.29 384.32" stroke="#132e65" stroke-width="1.5"></path><path d="M389.99 540.07L488.56 393.07" stroke="#132e65" stroke-width="1.5"></path><path d="M389.99 540.07L489.26 710.46" stroke="#132e65" stroke-width="1.5"></path><path d="M395.86 655.65L395.86 655.65" stroke="#132e65" stroke-width="1.5"></path><path d="M395.86 655.65L489.26 710.46" stroke="#132e65" stroke-width="1.5"></path><path d="M488.56 393.07L488.56 393.07" stroke="#132e65" stroke-width="1.5"></path><path d="M488.56 393.07L503.28 544.77" stroke="#132e65" stroke-width="1.5"></path><path d="M503.28 544.77L503.28 544.77" stroke="#132e65" stroke-width="1.5"></path><path d="M503.28 544.77L646.27 521.34" stroke="#132e65" stroke-width="1.5"></path><path d="M503.28 544.77L395.86 655.65" stroke="#132e65" stroke-width="1.5"></path><path d="M503.28 544.77L489.26 710.46" stroke="#132e65" stroke-width="1.5"></path><path d="M503.28 544.77L353.29 384.32" stroke="#132e65" stroke-width="1.5"></path><path d="M489.26 710.46L489.26 710.46" stroke="#132e65" stroke-width="1.5"></path><path d="M659.46 219.21L659.46 219.21" stroke="#132e65" stroke-width="1.5"></path><path d="M659.46 219.21L693.58 376.27" stroke="#132e65" stroke-width="1.5"></path><path d="M659.46 219.21L825.96 189.19" stroke="#132e65" stroke-width="1.5"></path><path d="M659.46 219.21L488.56 393.07" stroke="#132e65" stroke-width="1.5"></path><path d="M659.46 219.21L827.77 405.44" stroke="#132e65" stroke-width="1.5"></path><path d="M659.46 219.21L794.12 488.13" stroke="#132e65" stroke-width="1.5"></path><path d="M659.46 219.21L646.27 521.34" stroke="#132e65" stroke-width="1.5"></path><path d="M693.58 376.27L693.58 376.27" stroke="#132e65" stroke-width="1.5"></path><path d="M693.58 376.27L827.77 405.44" stroke="#132e65" stroke-width="1.5"></path><path d="M693.58 376.27L794.12 488.13" stroke="#132e65" stroke-width="1.5"></path><path d="M693.58 376.27L646.27 521.34" stroke="#132e65" stroke-width="1.5"></path><path d="M693.58 376.27L488.56 393.07" stroke="#132e65" stroke-width="1.5"></path><path d="M693.58 376.27L825.96 189.19" stroke="#132e65" stroke-width="1.5"></path><path d="M646.27 521.34L646.27 521.34" stroke="#132e65" stroke-width="1.5"></path><path d="M646.27 521.34L794.12 488.13" stroke="#132e65" stroke-width="1.5"></path><path d="M646.27 521.34L694.86 679.39" stroke="#132e65" stroke-width="1.5"></path><path d="M646.27 521.34L488.56 393.07" stroke="#132e65" stroke-width="1.5"></path><path d="M694.86 679.39L694.86 679.39" stroke="#132e65" stroke-width="1.5"></path><path d="M694.86 679.39L839.41 659.3" stroke="#132e65" stroke-width="1.5"></path><path d="M825.96 189.19L825.96 189.19" stroke="#132e65" stroke-width="1.5"></path><path d="M825.96 189.19L988.55 245.11" stroke="#132e65" stroke-width="1.5"></path><path d="M827.77 405.44L827.77 405.44" stroke="#132e65" stroke-width="1.5"></path><path d="M827.77 405.44L794.12 488.13" stroke="#132e65" stroke-width="1.5"></path><path d="M827.77 405.44L954.27 339.81" stroke="#132e65" stroke-width="1.5"></path><path d="M827.77 405.44L990.01 495.29" stroke="#132e65" stroke-width="1.5"></path><path d="M794.12 488.13L794.12 488.13" stroke="#132e65" stroke-width="1.5"></path><path d="M794.12 488.13L839.41 659.3" stroke="#132e65" stroke-width="1.5"></path><path d="M794.12 488.13L990.01 495.29" stroke="#132e65" stroke-width="1.5"></path><path d="M794.12 488.13L694.86 679.39" stroke="#132e65" stroke-width="1.5"></path><path d="M839.41 659.3L839.41 659.3" stroke="#132e65" stroke-width="1.5"></path><path d="M839.41 659.3L994.66 705.38" stroke="#132e65" stroke-width="1.5"></path><path d="M982.98 -37.8L982.98 -37.8" stroke="#132e65" stroke-width="1.5"></path><path d="M982.98 -37.8L948.92 45.41" stroke="#132e65" stroke-width="1.5"></path><path d="M982.98 -37.8L1162.16 -59.02" stroke="#132e65" stroke-width="1.5"></path><path d="M948.92 45.41L948.92 45.41" stroke="#132e65" stroke-width="1.5"></path><path d="M948.92 45.41L825.96 189.19" stroke="#132e65" stroke-width="1.5"></path><path d="M948.92 45.41L1145.93 95.74" stroke="#132e65" stroke-width="1.5"></path><path d="M948.92 45.41L988.55 245.11" stroke="#132e65" stroke-width="1.5"></path><path d="M988.55 245.11L988.55 245.11" stroke="#132e65" stroke-width="1.5"></path><path d="M988.55 245.11L954.27 339.81" stroke="#132e65" stroke-width="1.5"></path><path d="M988.55 245.11L1131.03 237.17" stroke="#132e65" stroke-width="1.5"></path><path d="M954.27 339.81L954.27 339.81" stroke="#132e65" stroke-width="1.5"></path><path d="M990.01 495.29L990.01 495.29" stroke="#132e65" stroke-width="1.5"></path><path d="M990.01 495.29L1125.41 557.12" stroke="#132e65" stroke-width="1.5"></path><path d="M990.01 495.29L1096.75 379.36" stroke="#132e65" stroke-width="1.5"></path><path d="M990.01 495.29L954.27 339.81" stroke="#132e65" stroke-width="1.5"></path><path d="M994.66 705.38L994.66 705.38" stroke="#132e65" stroke-width="1.5"></path><path d="M994.66 705.38L1155.9 684.3" stroke="#132e65" stroke-width="1.5"></path><path d="M994.66 705.38L1125.41 557.12" stroke="#132e65" stroke-width="1.5"></path><path d="M994.66 705.38L990.01 495.29" stroke="#132e65" stroke-width="1.5"></path><path d="M994.66 705.38L794.12 488.13" stroke="#132e65" stroke-width="1.5"></path><path d="M1162.16 -59.02L1162.16 -59.02" stroke="#132e65" stroke-width="1.5"></path><path d="M1162.16 -59.02L1288.07 -93.32" stroke="#132e65" stroke-width="1.5"></path><path d="M1162.16 -59.02L1145.93 95.74" stroke="#132e65" stroke-width="1.5"></path><path d="M1162.16 -59.02L1286.03 83.87" stroke="#132e65" stroke-width="1.5"></path><path d="M1145.93 95.74L1145.93 95.74" stroke="#132e65" stroke-width="1.5"></path><path d="M1145.93 95.74L1286.03 83.87" stroke="#132e65" stroke-width="1.5"></path><path d="M1145.93 95.74L1131.03 237.17" stroke="#132e65" stroke-width="1.5"></path><path d="M1145.93 95.74L1283.72 230.18" stroke="#132e65" stroke-width="1.5"></path><path d="M1131.03 237.17L1131.03 237.17" stroke="#132e65" stroke-width="1.5"></path><path d="M1096.75 379.36L1096.75 379.36" stroke="#132e65" stroke-width="1.5"></path><path d="M1096.75 379.36L1131.03 237.17" stroke="#132e65" stroke-width="1.5"></path><path d="M1096.75 379.36L954.27 339.81" stroke="#132e65" stroke-width="1.5"></path><path d="M1096.75 379.36L988.55 245.11" stroke="#132e65" stroke-width="1.5"></path><path d="M1125.41 557.12L1125.41 557.12" stroke="#132e65" stroke-width="1.5"></path><path d="M1125.41 557.12L1155.9 684.3" stroke="#132e65" stroke-width="1.5"></path><path d="M1125.41 557.12L1096.75 379.36" stroke="#132e65" stroke-width="1.5"></path><path d="M1155.9 684.3L1155.9 684.3" stroke="#132e65" stroke-width="1.5"></path><path d="M1155.9 684.3L1298.78 683.48" stroke="#132e65" stroke-width="1.5"></path><path d="M1155.9 684.3L1392.79 651.32" stroke="#132e65" stroke-width="1.5"></path><path d="M1288.07 -93.32L1288.07 -93.32" stroke="#132e65" stroke-width="1.5"></path><path d="M1288.07 -93.32L1432.12 -82.47" stroke="#132e65" stroke-width="1.5"></path><path d="M1288.07 -93.32L1286.03 83.87" stroke="#132e65" stroke-width="1.5"></path><path d="M1288.07 -93.32L1420.75 80.54" stroke="#132e65" stroke-width="1.5"></path><path d="M1288.07 -93.32L1145.93 95.74" stroke="#132e65" stroke-width="1.5"></path><path d="M1288.07 -93.32L1592.21 -100.02" stroke="#132e65" stroke-width="1.5"></path><path d="M1286.03 83.87L1286.03 83.87" stroke="#132e65" stroke-width="1.5"></path><path d="M1286.03 83.87L1420.75 80.54" stroke="#132e65" stroke-width="1.5"></path><path d="M1286.03 83.87L1283.72 230.18" stroke="#132e65" stroke-width="1.5"></path><path d="M1283.72 230.18L1283.72 230.18" stroke="#132e65" stroke-width="1.5"></path><path d="M1283.72 230.18L1400.13 249.09" stroke="#132e65" stroke-width="1.5"></path><path d="M1283.72 230.18L1131.03 237.17" stroke="#132e65" stroke-width="1.5"></path><path d="M1283.72 230.18L1287.77 387.76" stroke="#132e65" stroke-width="1.5"></path><path d="M1287.77 387.76L1287.77 387.76" stroke="#132e65" stroke-width="1.5"></path><path d="M1287.77 387.76L1415.6 344.21" stroke="#132e65" stroke-width="1.5"></path><path d="M1298.78 683.48L1298.78 683.48" stroke="#132e65" stroke-width="1.5"></path><path d="M1298.78 683.48L1392.79 651.32" stroke="#132e65" stroke-width="1.5"></path><path d="M1298.78 683.48L1421.57 530.36" stroke="#132e65" stroke-width="1.5"></path><path d="M1298.78 683.48L1125.41 557.12" stroke="#132e65" stroke-width="1.5"></path><path d="M1298.78 683.48L1287.77 387.76" stroke="#132e65" stroke-width="1.5"></path><path d="M1298.78 683.48L994.66 705.38" stroke="#132e65" stroke-width="1.5"></path><path d="M1432.12 -82.47L1432.12 -82.47" stroke="#132e65" stroke-width="1.5"></path><path d="M1432.12 -82.47L1592.21 -100.02" stroke="#132e65" stroke-width="1.5"></path><path d="M1420.75 80.54L1420.75 80.54" stroke="#132e65" stroke-width="1.5"></path><path d="M1420.75 80.54L1432.12 -82.47" stroke="#132e65" stroke-width="1.5"></path><path d="M1420.75 80.54L1400.13 249.09" stroke="#132e65" stroke-width="1.5"></path><path d="M1420.75 80.54L1591.49 99.02" stroke="#132e65" stroke-width="1.5"></path><path d="M1420.75 80.54L1283.72 230.18" stroke="#132e65" stroke-width="1.5"></path><path d="M1400.13 249.09L1400.13 249.09" stroke="#132e65" stroke-width="1.5"></path><path d="M1400.13 249.09L1415.6 344.21" stroke="#132e65" stroke-width="1.5"></path><path d="M1415.6 344.21L1415.6 344.21" stroke="#132e65" stroke-width="1.5"></path><path d="M1415.6 344.21L1568.92 393.08" stroke="#132e65" stroke-width="1.5"></path><path d="M1421.57 530.36L1421.57 530.36" stroke="#132e65" stroke-width="1.5"></path><path d="M1421.57 530.36L1392.79 651.32" stroke="#132e65" stroke-width="1.5"></path><path d="M1421.57 530.36L1574.71 499.16" stroke="#132e65" stroke-width="1.5"></path><path d="M1421.57 530.36L1415.6 344.21" stroke="#132e65" stroke-width="1.5"></path><path d="M1392.79 651.32L1392.79 651.32" stroke="#132e65" stroke-width="1.5"></path><path d="M1392.79 651.32L1605.06 687.89" stroke="#132e65" stroke-width="1.5"></path><path d="M1392.79 651.32L1574.71 499.16" stroke="#132e65" stroke-width="1.5"></path><path d="M1592.21 -100.02L1592.21 -100.02" stroke="#132e65" stroke-width="1.5"></path><path d="M1592.21 -100.02L1591.49 99.02" stroke="#132e65" stroke-width="1.5"></path><path d="M1592.21 -100.02L1420.75 80.54" stroke="#132e65" stroke-width="1.5"></path><path d="M1591.49 99.02L1591.49 99.02" stroke="#132e65" stroke-width="1.5"></path><path d="M1591.49 99.02L1588.95 220.51" stroke="#132e65" stroke-width="1.5"></path><path d="M1588.95 220.51L1588.95 220.51" stroke="#132e65" stroke-width="1.5"></path><path d="M1588.95 220.51L1568.92 393.08" stroke="#132e65" stroke-width="1.5"></path><path d="M1588.95 220.51L1400.13 249.09" stroke="#132e65" stroke-width="1.5"></path><path d="M1588.95 220.51L1415.6 344.21" stroke="#132e65" stroke-width="1.5"></path><path d="M1588.95 220.51L1420.75 80.54" stroke="#132e65" stroke-width="1.5"></path><path d="M1588.95 220.51L1574.71 499.16" stroke="#132e65" stroke-width="1.5"></path><path d="M1568.92 393.08L1568.92 393.08" stroke="#132e65" stroke-width="1.5"></path><path d="M1568.92 393.08L1574.71 499.16" stroke="#132e65" stroke-width="1.5"></path><path d="M1568.92 393.08L1421.57 530.36" stroke="#132e65" stroke-width="1.5"></path><path d="M1568.92 393.08L1400.13 249.09" stroke="#132e65" stroke-width="1.5"></path><path d="M1568.92 393.08L1287.77 387.76" stroke="#132e65" stroke-width="1.5"></path><path d="M1574.71 499.16L1574.71 499.16" stroke="#132e65" stroke-width="1.5"></path><path d="M1574.71 499.16L1605.06 687.89" stroke="#132e65" stroke-width="1.5"></path><path d="M1574.71 499.16L1415.6 344.21" stroke="#132e65" stroke-width="1.5"></path><path d="M1605.06 687.89L1605.06 687.89" stroke="#132e65" stroke-width="1.5"></path><path d="M1605.06 687.89L1421.57 530.36" stroke="#132e65" stroke-width="1.5"></path><path d="M1605.06 687.89L1568.92 393.08" stroke="#132e65" stroke-width="1.5"></path><path d="M1605.06 687.89L1298.78 683.48" stroke="#132e65" stroke-width="1.5"></path><path d="M1605.06 687.89L1415.6 344.21" stroke="#132e65" stroke-width="1.5"></path><circle r="5" cx="-49.05" cy="388.89" fill="#132e65"></circle><circle r="5" cx="-74.89" cy="525.57" fill="#132e65"></circle><circle r="5" cx="-50.78" cy="695.79" fill="#132e65"></circle><circle r="5" cx="97.06" cy="367.14" fill="#132e65"></circle><circle r="5" cx="103.26" cy="549.07" fill="#132e65"></circle><circle r="5" cx="82.76" cy="676.76" fill="#132e65"></circle><circle r="5" cx="239.68" cy="400.99" fill="#132e65"></circle><circle r="5" cx="228.6" cy="496.5" fill="#132e65"></circle><circle r="5" cx="353.29" cy="384.32" fill="#132e65"></circle><circle r="5" cx="389.99" cy="540.07" fill="#132e65"></circle><circle r="5" cx="395.86" cy="655.65" fill="#132e65"></circle><circle r="5" cx="488.56" cy="393.07" fill="#132e65"></circle><circle r="5" cx="503.28" cy="544.77" fill="#132e65"></circle><circle r="5" cx="489.26" cy="710.46" fill="#132e65"></circle><circle r="5" cx="659.46" cy="219.21" fill="#132e65"></circle><circle r="5" cx="693.58" cy="376.27" fill="#132e65"></circle><circle r="5" cx="646.27" cy="521.34" fill="#132e65"></circle><circle r="5" cx="694.86" cy="679.39" fill="#132e65"></circle><circle r="5" cx="825.96" cy="189.19" fill="#132e65"></circle><circle r="5" cx="827.77" cy="405.44" fill="#132e65"></circle><circle r="5" cx="794.12" cy="488.13" fill="#132e65"></circle><circle r="5" cx="839.41" cy="659.3" fill="#132e65"></circle><circle r="5" cx="982.98" cy="-37.8" fill="#132e65"></circle><circle r="5" cx="948.92" cy="45.41" fill="#132e65"></circle><circle r="5" cx="988.55" cy="245.11" fill="#132e65"></circle><circle r="5" cx="954.27" cy="339.81" fill="#132e65"></circle><circle r="5" cx="990.01" cy="495.29" fill="#132e65"></circle><circle r="5" cx="994.66" cy="705.38" fill="#132e65"></circle><circle r="5" cx="1162.16" cy="-59.02" fill="#132e65"></circle><circle r="5" cx="1145.93" cy="95.74" fill="#132e65"></circle><circle r="5" cx="1131.03" cy="237.17" fill="#132e65"></circle><circle r="5" cx="1096.75" cy="379.36" fill="#132e65"></circle><circle r="5" cx="1125.41" cy="557.12" fill="#132e65"></circle><circle r="5" cx="1155.9" cy="684.3" fill="#132e65"></circle><circle r="5" cx="1288.07" cy="-93.32" fill="#132e65"></circle><circle r="5" cx="1286.03" cy="83.87" fill="#132e65"></circle><circle r="5" cx="1283.72" cy="230.18" fill="#132e65"></circle><circle r="5" cx="1287.77" cy="387.76" fill="#132e65"></circle><circle r="5" cx="1298.78" cy="683.48" fill="#132e65"></circle><circle r="5" cx="1432.12" cy="-82.47" fill="#132e65"></circle><circle r="5" cx="1420.75" cy="80.54" fill="#132e65"></circle><circle r="5" cx="1400.13" cy="249.09" fill="#132e65"></circle><circle r="5" cx="1415.6" cy="344.21" fill="#132e65"></circle><circle r="5" cx="1421.57" cy="530.36" fill="#132e65"></circle><circle r="5" cx="1392.79" cy="651.32" fill="#132e65"></circle><circle r="5" cx="1592.21" cy="-100.02" fill="#132e65"></circle><circle r="5" cx="1591.49" cy="99.02" fill="#132e65"></circle><circle r="5" cx="1588.95" cy="220.51" fill="#132e65"></circle><circle r="5" cx="1568.92" cy="393.08" fill="#132e65"></circle><circle r="5" cx="1574.71" cy="499.16" fill="#132e65"></circle><circle r="5" cx="1605.06" cy="687.89" fill="#132e65"></circle><path d="M-52.85 644.61L-52.85 644.61" stroke="hsl(228.5, 77.2%, 51.5%)" stroke-width="1.5"></path><path d="M-52.85 644.61L65.88 660.81" stroke="hsl(228.5, 77.2%, 51.5%)" stroke-width="1.5"></path><path d="M-52.85 644.61L-82 503.44" stroke="hsl(228.5, 77.2%, 51.5%)" stroke-width="1.5"></path><path d="M-52.85 644.61L107.12 499.28" stroke="hsl(228.5, 77.2%, 51.5%)" stroke-width="1.5"></path><path d="M-52.85 644.61L207.82 662.49" stroke="hsl(228.5, 77.2%, 51.5%)" stroke-width="1.5"></path><path d="M345.17 523.62L345.17 523.62" stroke="hsl(228.5, 77.2%, 51.5%)" stroke-width="1.5"></path><path d="M345.17 523.62L211.96 525.07" stroke="hsl(228.5, 77.2%, 51.5%)" stroke-width="1.5"></path><path d="M345.17 523.62L502.24 490.46" stroke="hsl(228.5, 77.2%, 51.5%)" stroke-width="1.5"></path><path d="M407.12 677.55L407.12 677.55" stroke="hsl(228.5, 77.2%, 51.5%)" stroke-width="1.5"></path><path d="M407.12 677.55L559.13 701.75" stroke="hsl(228.5, 77.2%, 51.5%)" stroke-width="1.5"></path><path d="M407.12 677.55L345.17 523.62" stroke="hsl(228.5, 77.2%, 51.5%)" stroke-width="1.5"></path><path d="M407.12 677.55L207.82 662.49" stroke="hsl(228.5, 77.2%, 51.5%)" stroke-width="1.5"></path><path d="M559.13 701.75L559.13 701.75" stroke="hsl(228.5, 77.2%, 51.5%)" stroke-width="1.5"></path><path d="M559.13 701.75L692.54 707.31" stroke="hsl(228.5, 77.2%, 51.5%)" stroke-width="1.5"></path><path d="M559.13 701.75L702.25 553.51" stroke="hsl(228.5, 77.2%, 51.5%)" stroke-width="1.5"></path><path d="M559.13 701.75L502.24 490.46" stroke="hsl(228.5, 77.2%, 51.5%)" stroke-width="1.5"></path><path d="M1261.29 704.12L1261.29 704.12" stroke="hsl(228.5, 77.2%, 51.5%)" stroke-width="1.5"></path><path d="M1261.29 704.12L1151.34 684.46" stroke="hsl(228.5, 77.2%, 51.5%)" stroke-width="1.5"></path><path d="M1261.29 704.12L1245.81 533.12" stroke="hsl(228.5, 77.2%, 51.5%)" stroke-width="1.5"></path><path d="M1261.29 704.12L1447.56 702.13" stroke="hsl(228.5, 77.2%, 51.5%)" stroke-width="1.5"></path><path d="M1261.29 704.12L1110.82 550.82" stroke="hsl(228.5, 77.2%, 51.5%)" stroke-width="1.5"></path><path d="M1261.29 704.12L1392.65 505.18" stroke="hsl(228.5, 77.2%, 51.5%)" stroke-width="1.5"></path><path d="M1392.65 505.18L1392.65 505.18" stroke="hsl(228.5, 77.2%, 51.5%)" stroke-width="1.5"></path><path d="M1392.65 505.18L1458.82 404.03" stroke="hsl(228.5, 77.2%, 51.5%)" stroke-width="1.5"></path><path d="M1392.65 505.18L1245.81 533.12" stroke="hsl(228.5, 77.2%, 51.5%)" stroke-width="1.5"></path><path d="M1392.65 505.18L1562.91 547.17" stroke="hsl(228.5, 77.2%, 51.5%)" stroke-width="1.5"></path><path d="M1392.65 505.18L1271.27 374.66" stroke="hsl(228.5, 77.2%, 51.5%)" stroke-width="1.5"></path><path d="M1392.65 505.18L1548.36 396.3" stroke="hsl(228.5, 77.2%, 51.5%)" stroke-width="1.5"></path><path d="M1548.36 396.3L1548.36 396.3" stroke="hsl(228.5, 77.2%, 51.5%)" stroke-width="1.5"></path><path d="M1548.36 396.3L1458.82 404.03" stroke="hsl(228.5, 77.2%, 51.5%)" stroke-width="1.5"></path><path d="M1548.36 396.3L1562.91 547.17" stroke="hsl(228.5, 77.2%, 51.5%)" stroke-width="1.5"></path><path d="M1548.36 396.3L1549.94 199.57" stroke="hsl(228.5, 77.2%, 51.5%)" stroke-width="1.5"></path><path d="M1548.36 396.3L1448.06 204.9" stroke="hsl(228.5, 77.2%, 51.5%)" stroke-width="1.5"></path><path d="M1548.36 396.3L1271.27 374.66" stroke="hsl(228.5, 77.2%, 51.5%)" stroke-width="1.5"></path><path d="M-82 503.44L-82 503.44" stroke="hsl(228.5, 77.2%, 51.5%)" stroke-width="1.5"></path><path d="M-82 503.44L107.12 499.28" stroke="hsl(228.5, 77.2%, 51.5%)" stroke-width="1.5"></path><path d="M-82 503.44L65.88 660.81" stroke="hsl(228.5, 77.2%, 51.5%)" stroke-width="1.5"></path><path d="M107.12 499.28L107.12 499.28" stroke="hsl(228.5, 77.2%, 51.5%)" stroke-width="1.5"></path><path d="M107.12 499.28L211.96 525.07" stroke="hsl(228.5, 77.2%, 51.5%)" stroke-width="1.5"></path><path d="M65.88 660.81L65.88 660.81" stroke="hsl(228.5, 77.2%, 51.5%)" stroke-width="1.5"></path><path d="M65.88 660.81L207.82 662.49" stroke="hsl(228.5, 77.2%, 51.5%)" stroke-width="1.5"></path><path d="M65.88 660.81L107.12 499.28" stroke="hsl(228.5, 77.2%, 51.5%)" stroke-width="1.5"></path><path d="M65.88 660.81L211.96 525.07" stroke="hsl(228.5, 77.2%, 51.5%)" stroke-width="1.5"></path><path d="M211.96 525.07L211.96 525.07" stroke="hsl(228.5, 77.2%, 51.5%)" stroke-width="1.5"></path><path d="M211.96 525.07L207.82 662.49" stroke="hsl(228.5, 77.2%, 51.5%)" stroke-width="1.5"></path><path d="M207.82 662.49L207.82 662.49" stroke="hsl(228.5, 77.2%, 51.5%)" stroke-width="1.5"></path><path d="M207.82 662.49L107.12 499.28" stroke="hsl(228.5, 77.2%, 51.5%)" stroke-width="1.5"></path><path d="M207.82 662.49L345.17 523.62" stroke="hsl(228.5, 77.2%, 51.5%)" stroke-width="1.5"></path><path d="M502.24 490.46L502.24 490.46" stroke="hsl(228.5, 77.2%, 51.5%)" stroke-width="1.5"></path><path d="M502.24 490.46L702.25 553.51" stroke="hsl(228.5, 77.2%, 51.5%)" stroke-width="1.5"></path><path d="M697.57 396.38L697.57 396.38" stroke="hsl(228.5, 77.2%, 51.5%)" stroke-width="1.5"></path><path d="M697.57 396.38L812.24 377.51" stroke="hsl(228.5, 77.2%, 51.5%)" stroke-width="1.5"></path><path d="M697.57 396.38L702.25 553.51" stroke="hsl(228.5, 77.2%, 51.5%)" stroke-width="1.5"></path><path d="M702.25 553.51L702.25 553.51" stroke="hsl(228.5, 77.2%, 51.5%)" stroke-width="1.5"></path><path d="M702.25 553.51L847.56 537.09" stroke="hsl(228.5, 77.2%, 51.5%)" stroke-width="1.5"></path><path d="M702.25 553.51L692.54 707.31" stroke="hsl(228.5, 77.2%, 51.5%)" stroke-width="1.5"></path><path d="M702.25 553.51L815.55 712.04" stroke="hsl(228.5, 77.2%, 51.5%)" stroke-width="1.5"></path><path d="M692.54 707.31L692.54 707.31" stroke="hsl(228.5, 77.2%, 51.5%)" stroke-width="1.5"></path><path d="M692.54 707.31L815.55 712.04" stroke="hsl(228.5, 77.2%, 51.5%)" stroke-width="1.5"></path><path d="M812.24 377.51L812.24 377.51" stroke="hsl(228.5, 77.2%, 51.5%)" stroke-width="1.5"></path><path d="M812.24 377.51L969.43 344.4" stroke="hsl(228.5, 77.2%, 51.5%)" stroke-width="1.5"></path><path d="M847.56 537.09L847.56 537.09" stroke="hsl(228.5, 77.2%, 51.5%)" stroke-width="1.5"></path><path d="M847.56 537.09L956.7 554.8" stroke="hsl(228.5, 77.2%, 51.5%)" stroke-width="1.5"></path><path d="M815.55 712.04L815.55 712.04" stroke="hsl(228.5, 77.2%, 51.5%)" stroke-width="1.5"></path><path d="M815.55 712.04L847.56 537.09" stroke="hsl(228.5, 77.2%, 51.5%)" stroke-width="1.5"></path><path d="M969.43 344.4L969.43 344.4" stroke="hsl(228.5, 77.2%, 51.5%)" stroke-width="1.5"></path><path d="M969.43 344.4L1122.01 338.91" stroke="hsl(228.5, 77.2%, 51.5%)" stroke-width="1.5"></path><path d="M969.43 344.4L1114.26 204.21" stroke="hsl(228.5, 77.2%, 51.5%)" stroke-width="1.5"></path><path d="M969.43 344.4L956.7 554.8" stroke="hsl(228.5, 77.2%, 51.5%)" stroke-width="1.5"></path><path d="M969.43 344.4L847.56 537.09" stroke="hsl(228.5, 77.2%, 51.5%)" stroke-width="1.5"></path><path d="M956.7 554.8L956.7 554.8" stroke="hsl(228.5, 77.2%, 51.5%)" stroke-width="1.5"></path><path d="M956.7 554.8L1005.51 658.49" stroke="hsl(228.5, 77.2%, 51.5%)" stroke-width="1.5"></path><path d="M956.7 554.8L1110.82 550.82" stroke="hsl(228.5, 77.2%, 51.5%)" stroke-width="1.5"></path><path d="M1005.51 658.49L1005.51 658.49" stroke="hsl(228.5, 77.2%, 51.5%)" stroke-width="1.5"></path><path d="M1005.51 658.49L1151.34 684.46" stroke="hsl(228.5, 77.2%, 51.5%)" stroke-width="1.5"></path><path d="M1114.26 204.21L1114.26 204.21" stroke="hsl(228.5, 77.2%, 51.5%)" stroke-width="1.5"></path><path d="M1114.26 204.21L1122.01 338.91" stroke="hsl(228.5, 77.2%, 51.5%)" stroke-width="1.5"></path><path d="M1114.26 204.21L1290.97 251.24" stroke="hsl(228.5, 77.2%, 51.5%)" stroke-width="1.5"></path><path d="M1122.01 338.91L1122.01 338.91" stroke="hsl(228.5, 77.2%, 51.5%)" stroke-width="1.5"></path><path d="M1122.01 338.91L1271.27 374.66" stroke="hsl(228.5, 77.2%, 51.5%)" stroke-width="1.5"></path><path d="M1122.01 338.91L1290.97 251.24" stroke="hsl(228.5, 77.2%, 51.5%)" stroke-width="1.5"></path><path d="M1110.82 550.82L1110.82 550.82" stroke="hsl(228.5, 77.2%, 51.5%)" stroke-width="1.5"></path><path d="M1110.82 550.82L1245.81 533.12" stroke="hsl(228.5, 77.2%, 51.5%)" stroke-width="1.5"></path><path d="M1110.82 550.82L1151.34 684.46" stroke="hsl(228.5, 77.2%, 51.5%)" stroke-width="1.5"></path><path d="M1151.34 684.46L1151.34 684.46" stroke="hsl(228.5, 77.2%, 51.5%)" stroke-width="1.5"></path><path d="M1302.22 -72L1302.22 -72" stroke="hsl(228.5, 77.2%, 51.5%)" stroke-width="1.5"></path><path d="M1302.22 -72L1433.04 -95.32" stroke="hsl(228.5, 77.2%, 51.5%)" stroke-width="1.5"></path><path d="M1302.22 -72L1296.89 65.63" stroke="hsl(228.5, 77.2%, 51.5%)" stroke-width="1.5"></path><path d="M1302.22 -72L1445.2 107.88" stroke="hsl(228.5, 77.2%, 51.5%)" stroke-width="1.5"></path><path d="M1302.22 -72L1558.59 -91.39" stroke="hsl(228.5, 77.2%, 51.5%)" stroke-width="1.5"></path><path d="M1302.22 -72L1546.55 57.52" stroke="hsl(228.5, 77.2%, 51.5%)" stroke-width="1.5"></path><path d="M1302.22 -72L1448.06 204.9" stroke="hsl(228.5, 77.2%, 51.5%)" stroke-width="1.5"></path><path d="M1296.89 65.63L1296.89 65.63" stroke="hsl(228.5, 77.2%, 51.5%)" stroke-width="1.5"></path><path d="M1296.89 65.63L1445.2 107.88" stroke="hsl(228.5, 77.2%, 51.5%)" stroke-width="1.5"></path><path d="M1296.89 65.63L1290.97 251.24" stroke="hsl(228.5, 77.2%, 51.5%)" stroke-width="1.5"></path><path d="M1290.97 251.24L1290.97 251.24" stroke="hsl(228.5, 77.2%, 51.5%)" stroke-width="1.5"></path><path d="M1290.97 251.24L1271.27 374.66" stroke="hsl(228.5, 77.2%, 51.5%)" stroke-width="1.5"></path><path d="M1290.97 251.24L1448.06 204.9" stroke="hsl(228.5, 77.2%, 51.5%)" stroke-width="1.5"></path><path d="M1271.27 374.66L1271.27 374.66" stroke="hsl(228.5, 77.2%, 51.5%)" stroke-width="1.5"></path><path d="M1271.27 374.66L1245.81 533.12" stroke="hsl(228.5, 77.2%, 51.5%)" stroke-width="1.5"></path><path d="M1271.27 374.66L1458.82 404.03" stroke="hsl(228.5, 77.2%, 51.5%)" stroke-width="1.5"></path><path d="M1245.81 533.12L1245.81 533.12" stroke="hsl(228.5, 77.2%, 51.5%)" stroke-width="1.5"></path><path d="M1245.81 533.12L1151.34 684.46" stroke="hsl(228.5, 77.2%, 51.5%)" stroke-width="1.5"></path><path d="M1245.81 533.12L1122.01 338.91" stroke="hsl(228.5, 77.2%, 51.5%)" stroke-width="1.5"></path><path d="M1433.04 -95.32L1433.04 -95.32" stroke="hsl(228.5, 77.2%, 51.5%)" stroke-width="1.5"></path><path d="M1433.04 -95.32L1558.59 -91.39" stroke="hsl(228.5, 77.2%, 51.5%)" stroke-width="1.5"></path><path d="M1433.04 -95.32L1546.55 57.52" stroke="hsl(228.5, 77.2%, 51.5%)" stroke-width="1.5"></path><path d="M1433.04 -95.32L1445.2 107.88" stroke="hsl(228.5, 77.2%, 51.5%)" stroke-width="1.5"></path><path d="M1433.04 -95.32L1296.89 65.63" stroke="hsl(228.5, 77.2%, 51.5%)" stroke-width="1.5"></path><path d="M1433.04 -95.32L1448.06 204.9" stroke="hsl(228.5, 77.2%, 51.5%)" stroke-width="1.5"></path><path d="M1445.2 107.88L1445.2 107.88" stroke="hsl(228.5, 77.2%, 51.5%)" stroke-width="1.5"></path><path d="M1445.2 107.88L1448.06 204.9" stroke="hsl(228.5, 77.2%, 51.5%)" stroke-width="1.5"></path><path d="M1445.2 107.88L1546.55 57.52" stroke="hsl(228.5, 77.2%, 51.5%)" stroke-width="1.5"></path><path d="M1445.2 107.88L1549.94 199.57" stroke="hsl(228.5, 77.2%, 51.5%)" stroke-width="1.5"></path><path d="M1448.06 204.9L1448.06 204.9" stroke="hsl(228.5, 77.2%, 51.5%)" stroke-width="1.5"></path><path d="M1448.06 204.9L1549.94 199.57" stroke="hsl(228.5, 77.2%, 51.5%)" stroke-width="1.5"></path><path d="M1458.82 404.03L1458.82 404.03" stroke="hsl(228.5, 77.2%, 51.5%)" stroke-width="1.5"></path><path d="M1458.82 404.03L1562.91 547.17" stroke="hsl(228.5, 77.2%, 51.5%)" stroke-width="1.5"></path><path d="M1447.56 702.13L1447.56 702.13" stroke="hsl(228.5, 77.2%, 51.5%)" stroke-width="1.5"></path><path d="M1447.56 702.13L1598.93 693.56" stroke="hsl(228.5, 77.2%, 51.5%)" stroke-width="1.5"></path><path d="M1558.59 -91.39L1558.59 -91.39" stroke="hsl(228.5, 77.2%, 51.5%)" stroke-width="1.5"></path><path d="M1558.59 -91.39L1546.55 57.52" stroke="hsl(228.5, 77.2%, 51.5%)" stroke-width="1.5"></path><path d="M1558.59 -91.39L1445.2 107.88" stroke="hsl(228.5, 77.2%, 51.5%)" stroke-width="1.5"></path><path d="M1558.59 -91.39L1549.94 199.57" stroke="hsl(228.5, 77.2%, 51.5%)" stroke-width="1.5"></path><path d="M1558.59 -91.39L1296.89 65.63" stroke="hsl(228.5, 77.2%, 51.5%)" stroke-width="1.5"></path><path d="M1546.55 57.52L1546.55 57.52" stroke="hsl(228.5, 77.2%, 51.5%)" stroke-width="1.5"></path><path d="M1546.55 57.52L1549.94 199.57" stroke="hsl(228.5, 77.2%, 51.5%)" stroke-width="1.5"></path><path d="M1546.55 57.52L1448.06 204.9" stroke="hsl(228.5, 77.2%, 51.5%)" stroke-width="1.5"></path><path d="M1549.94 199.57L1549.94 199.57" stroke="hsl(228.5, 77.2%, 51.5%)" stroke-width="1.5"></path><path d="M1549.94 199.57L1458.82 404.03" stroke="hsl(228.5, 77.2%, 51.5%)" stroke-width="1.5"></path><path d="M1562.91 547.17L1562.91 547.17" stroke="hsl(228.5, 77.2%, 51.5%)" stroke-width="1.5"></path><path d="M1562.91 547.17L1598.93 693.56" stroke="hsl(228.5, 77.2%, 51.5%)" stroke-width="1.5"></path><path d="M1598.93 693.56L1598.93 693.56" stroke="hsl(228.5, 77.2%, 51.5%)" stroke-width="1.5"></path><path d="M1598.93 693.56L1392.65 505.18" stroke="hsl(228.5, 77.2%, 51.5%)" stroke-width="1.5"></path><path d="M1598.93 693.56L1548.36 396.3" stroke="hsl(228.5, 77.2%, 51.5%)" stroke-width="1.5"></path><circle r="25" cx="-52.85" cy="644.61" fill="url(#SvgjsRadialGradient1572)"></circle><circle r="25" cx="345.17" cy="523.62" fill="url(#SvgjsRadialGradient1572)"></circle><circle r="25" cx="407.12" cy="677.55" fill="url(#SvgjsRadialGradient1572)"></circle><circle r="25" cx="559.13" cy="701.75" fill="url(#SvgjsRadialGradient1572)"></circle><circle r="25" cx="1261.29" cy="704.12" fill="url(#SvgjsRadialGradient1572)"></circle><circle r="25" cx="1392.65" cy="505.18" fill="url(#SvgjsRadialGradient1572)"></circle><circle r="25" cx="1548.36" cy="396.3" fill="url(#SvgjsRadialGradient1572)"></circle><circle r="5" cx="-82" cy="503.44" fill="#8b9ad9"></circle><circle r="5" cx="107.12" cy="499.28" fill="#8b9ad9"></circle><circle r="5" cx="65.88" cy="660.81" fill="#8b9ad9"></circle><circle r="5" cx="211.96" cy="525.07" fill="#8b9ad9"></circle><circle r="5" cx="207.82" cy="662.49" fill="#8b9ad9"></circle><circle r="5" cx="502.24" cy="490.46" fill="#8b9ad9"></circle><circle r="5" cx="697.57" cy="396.38" fill="#8b9ad9"></circle><circle r="5" cx="702.25" cy="553.51" fill="#8b9ad9"></circle><circle r="5" cx="692.54" cy="707.31" fill="#8b9ad9"></circle><circle r="5" cx="812.24" cy="377.51" fill="#8b9ad9"></circle><circle r="5" cx="847.56" cy="537.09" fill="#8b9ad9"></circle><circle r="5" cx="815.55" cy="712.04" fill="#8b9ad9"></circle><circle r="5" cx="969.43" cy="344.4" fill="#8b9ad9"></circle><circle r="5" cx="956.7" cy="554.8" fill="#8b9ad9"></circle><circle r="5" cx="1005.51" cy="658.49" fill="#8b9ad9"></circle><circle r="5" cx="1114.26" cy="204.21" fill="#8b9ad9"></circle><circle r="5" cx="1122.01" cy="338.91" fill="#8b9ad9"></circle><circle r="5" cx="1110.82" cy="550.82" fill="#8b9ad9"></circle><circle r="5" cx="1151.34" cy="684.46" fill="#8b9ad9"></circle><circle r="5" cx="1302.22" cy="-72" fill="#8b9ad9"></circle><circle r="5" cx="1296.89" cy="65.63" fill="#8b9ad9"></circle><circle r="5" cx="1290.97" cy="251.24" fill="#8b9ad9"></circle><circle r="5" cx="1271.27" cy="374.66" fill="#8b9ad9"></circle><circle r="5" cx="1245.81" cy="533.12" fill="#8b9ad9"></circle><circle r="5" cx="1433.04" cy="-95.32" fill="#8b9ad9"></circle><circle r="5" cx="1445.2" cy="107.88" fill="#8b9ad9"></circle><circle r="5" cx="1448.06" cy="204.9" fill="#8b9ad9"></circle><circle r="5" cx="1458.82" cy="404.03" fill="#8b9ad9"></circle><circle r="5" cx="1447.56" cy="702.13" fill="#8b9ad9"></circle><circle r="5" cx="1558.59" cy="-91.39" fill="#8b9ad9"></circle><circle r="5" cx="1546.55" cy="57.52" fill="#8b9ad9"></circle><circle r="5" cx="1549.94" cy="199.57" fill="#8b9ad9"></circle><circle r="5" cx="1562.91" cy="547.17" fill="#8b9ad9"></circle><circle r="5" cx="1598.93" cy="693.56" fill="#8b9ad9"></circle></g><defs><mask id="SvgjsMask1570"><rect width="1440" height="560" fill="#ffffff"></rect></mask><linearGradient x1="15.28%" y1="-39.29%" x2="84.72%" y2="139.29%" gradientUnits="userSpaceOnUse" id="SvgjsLinearGradient1571"><stop stop-color="#0e2a47" offset="0"></stop><stop stop-color="rgba(100, 140, 193, 1)" offset="1"></stop></linearGradient><radialGradient id="SvgjsRadialGradient1572"><stop stop-color="#ffffff" offset="0.1"></stop><stop stop-color="#1735b3" offset="0.2"></stop><stop stop-color="rgba(23, 53, 179, 0)" offset="1"></stop></radialGradient></defs></svg>